<svg version="1.2" xmlns="http://www.w3.org/2000/svg" viewBox="0 0 499 152" width="1600" height="487">
	<title>light-svg</title>
	<style>
		.s0 { fill: #000000 } 
	</style>
	<path id="Layer" fill-rule="evenodd" class="s0" d="m44.2 120.5q-5.2 0-9-1.1v-12.7q3.9 1 7.1 1 5 0 7.2-3.1 2.2-3.1 2.2-9.7v-67.3h15.2v67.2q0 12.5-5.8 19.1-5.7 6.6-16.9 6.6zm71.3-20.1q-13.2 0-20.7-7.4-7.4-7.3-7.4-20.7 0-13.8 6.9-21.3 6.9-7.6 19-7.6 11.7 0 18.1 6.7 6.5 6.6 6.5 18.3v7.3h-35.4q0.3 6.3 3.8 9.9 3.5 3.6 9.9 3.6 5 0 9.4-1 4.4-1.1 9.2-3.3v11.6q-3.9 1.9-8.4 2.9-4.4 1-10.9 1zm-2.1-46.3q-4.7 0-7.4 3-2.7 3-3.1 8.6h21q-0.1-5.6-2.9-8.6-2.8-3-7.6-3zm68.5 46.3q-13.3 0-20.8-7.4-7.4-7.3-7.4-20.7 0-13.8 6.9-21.3 6.9-7.6 19-7.6 11.7 0 18.2 6.7 6.4 6.6 6.4 18.3v7.3h-35.4q0.3 6.3 3.8 9.9 3.6 3.6 9.9 3.6 5 0 9.4-1 4.4-1.1 9.3-3.3v11.6q-4 1.9-8.4 2.9-4.5 1-10.9 1zm-2.2-46.3q-4.7 0-7.4 3-2.7 3-3.1 8.6h21q-0.1-5.6-2.9-8.6-2.8-3-7.6-3zm56.7 45.3l-20.9-54.9h15.6l10.6 31.3q1.8 5.9 2.3 11.2h0.3q0.2-4.7 2.2-11.2l10.5-31.3h15.7l-20.9 54.9zm147.2 1q-9.6 0-15.1-7.1h-0.8q0.8 6.9 0.8 8v22.2h-15v-79h12.2l2.1 7.1h0.7q5.2-8.2 15.5-8.2 9.7 0 15.2 7.6 5.5 7.5 5.5 20.8 0 8.8-2.5 15.3-2.6 6.5-7.4 9.9-4.7 3.4-11.2 3.4zm-4.4-45q-5.5 0-8.1 3.4-2.5 3.5-2.6 11.3v1.6q0 8.9 2.6 12.7 2.6 3.8 8.3 3.8 10.1 0 10.1-16.6 0-8.1-2.5-12.1-2.5-4.1-7.8-4.1zm83.1 27.7q0 8.4-5.8 12.8-5.9 4.5-17.6 4.5-6 0-10.2-0.9-4.2-0.8-7.9-2.3v-12.4q4.2 2 9.4 3.3 5.2 1.3 9.2 1.3 8.1 0 8.1-4.7 0-1.8-1-2.9-1.1-1.1-3.8-2.5-2.6-1.4-7-3.3-6.4-2.6-9.3-4.9-3-2.2-4.4-5.1-1.3-3-1.3-7.2 0-7.3 5.7-11.4 5.6-4 16-4 10 0 19.3 4.4l-4.5 10.8q-4.1-1.8-7.7-2.9-3.6-1.2-7.3-1.2-6.6 0-6.6 3.6 0 2 2.1 3.5 2.1 1.5 9.4 4.4 6.4 2.6 9.4 4.8 3 2.3 4.4 5.2 1.4 3 1.4 7.1zm-125.9-11.7q0.4 0.3 0.4 0.5 0 0.5-1.2 1.1-0.1 0.2-0.1 0.7 0 0.5-0.1 0.7v0.3q0 1.7-0.5 2.2 0 1.3-0.3 1.8 0.2 1 0.2 1.6 0 1.1-0.5 2.4-0.1 0.1-0.3 0.9-0.2 0.7-0.3 1-0.1 0.1-0.3 0.7-0.2 0.5-0.4 0.8-0.2 0.4-0.4 0.6c0 0.1 0 0.2 0 0.3q0.1 0.2 0.1 0.3 0 0.3-0.6 1.2-0.3 0.4-0.8 1.1-0.4 0.8-0.7 1.1-0.3 0.3-0.9 0.6-0.6 0.4-0.8 0.6-0.2 0.3-0.7 0.8-0.6 0.5-0.8 0.8-1.1 1.7-2.3 2.4-0.2 0.2-0.8 0.6-0.7 0.4-1.2 0.7-0.5 0.3-1 0.4-1.2 0.2-1.4 0.2-0.1 0-0.2 0-0.1 0-0.2 0-0.6-0.3-0.7-0.3-0.2 0-0.8 0.3-0.1 0-0.3 0-0.3 0-0.4 0-0.4 0-0.4-0.3-2.2 1.9-3.3 1.9-0.3 0-0.7-0.2-0.2-0.1-0.5-0.2-0.2-0.2-0.4-0.2-0.1 0.1-0.2 0.1-0.1 0.1-0.2 0.1h-1.4q-0.2-0.1-0.9-0.1-0.6 0-1.1-0.1-0.5-0.1-0.8-0.2h-0.2q-0.1 0-0.4-0.1-0.3-0.1-0.5-0.1-0.2 0-0.3 0.1h-0.4q-0.1 0-0.5-0.1-0.4 0-0.6 0-2-0.3-2.5-0.5-2.5-1-2.7-1.2-0.8-0.4-1.1-0.4-0.4 0-1.1 0.5-0.2 0.1-0.4 0.1-0.4 0-0.4-0.4 0-0.8 0.7-1.2-2.7-1.4-4.8-3.9-1.7-1.4-1.9-2 0-0.1-0.2-0.6-0.2-0.4-0.3-0.7-0.3-0.5-0.7-1.8-0.4-1.3-0.7-1.8-0.2-0.5-0.8-1.7-0.5-1.2-0.7-1.6-0.4-0.7-0.6-1.6-0.2-0.9-0.2-2.1 0-1.3-0.1-1.7-0.9-2.1-0.9-4.1 0-1.1 0.2-1.6 0-0.1 0-1.6 0-1.5-0.2-2.8-0.1-1.2-0.4-1.2-0.8-0.2-0.8-0.9 0-0.5 0.3-0.8l0.4-0.5q0 0 0.3-0.4 0.3-0.4 0.1-0.4-0.1 0 0.1-0.7-0.1-0.7-0.1-2.4-0.5 0.3-0.8 0.3-0.5 0-0.5-0.5 0-0.1 0.2-0.5 0.1-0.1 0.5-0.5 0.5-0.5 0.5-0.6 0-0.1 0-0.3-0.1-0.2-0.1-0.3 0-0.1 0.1-0.3 0-0.1 0-0.2 0.1-0.4 0.4-1.6 0.3-1.3 0.2-1.9-0.1-0.4-0.1-1.4 0-1.9 0.4-2.9 0.2-0.6 0.5-1.6 0.3-0.9 0.6-1.7 0.2-0.7 0.6-1.3 0-0.8 0.3-1.2 0.3-0.5 0.4-0.7v-0.2q0-0.4 0.4-0.7v-0.3q0-0.7 0.6-1.1 0.5-0.3 0.6-1.2 0.1-0.8 0.9-1.6 0.8-0.9 1.7-1.3 1-1.4 1.5-1.6 0.4-0.3 1.5-1.1 1.1-0.8 2-1.3 0.9-0.5 1.7-0.5h0.5q0.8 0 1.1-0.4 0.1-0.1 0.2-0.3 0.1-0.2 0.2-0.4 0.1-0.1 0.3-0.2 0.1-0.1 0.3-0.1 0.4 0 0.7 0.3h0.5q0.4 0 0.8-0.3 0.3-0.3 0.6-0.4 0.6-0.2 1-0.2 0.3 0 0.8 0 0.6 0.1 0.8 0.1 0.5 0 0.8-0.1h0.4q0.3 0 0.7 0.2 0.5-0.2 1-0.4 0.1 0 0.2-0.1 0.1 0 0.2 0 0.2 0 0.6 0.1 0.5 0.2 0.7 0.2 0.1-0.1 0.8-0.1 0.8 0 1.1 0.3 0.1 0 0.6-0.1 0.4 0 0.6 0 0.4 0 0.8 0.2 0.1-0.1 0.5-0.1 0.6 0 1.5 0.3 0.3-0.1 0.9 0.2 0.6 0.4 0.7 0.4 3.1 0.7 5.9 2.1 2.7 1.5 3.4 3.7 1.1 1.2 2 2.9 0.3 0.3 0.5 0.8 0.3 0.5 0.6 1 0.3 0.6 0.5 0.8 0.1 0.5 0.5 1 0 0.1 0.5 0.6 0.4 0.5 0.4 0.9 0 0.1-0.1 0.3 1.2 2.2 1.2 5.4 0.2-0.2 0.5-0.2 0.5 0 0.5 0.4 0 0.3-0.4 0.6-0.3 0.1-0.3 0.3 0 0.2 0.1 0.3 0.2-0.1 0.4-0.1 0.5 0 0.5 0.8 0 0.5-0.2 0.9-0.4 0.7-0.4 1.3 0 0.1 0 0.4 0.1 0.2 0.1 0.3 0.6-0.2 0.7-0.2 0.5 0 0.5 0.6 0 0.7-0.5 1.3-0.4 0.4-0.4 0.9 0 0.2 0.1 0.6 0.1 0.4 0.1 0.6v0.5q0 1-0.2 1.5v0.6q0 1.2-0.1 1.6 0.5 1.1 0.5 3.3 0 1.1-0.2 1.4v0.3q0 0.8-0.3 2.2-0.1 0.3-0.2 0.9 0 0.5-0.1 0.8 0.5 0 0.5 0.6zm-16.3 4.8q2.3-0.6 7.7-4.2 2.7-1.7 6.1-4.1 0.5-2.2 0.5-2.7-1.5 1.4-4.9 3.6-3.4 2.2-3.8 2.5-3.4 2.5-4.4 3.4 0 0.1-0.4 0.4-0.4 0.4-0.6 0.6-0.2 0.3-0.2 0.5zm-11.3 19.7q0.1 0 0.6 0.2 0.5 0.1 1 0.3 0.4 0.1 0.5 0.1 0.1-0.2 0.5-0.4 0.3-0.3 0.5-0.5 0.7-0.6 2.3-1.8 1.6-1.2 2.5-1.8 1.3-1 4.1-3.1 2.8-2.1 4.2-3.2-11.5 7.2-17.1 10.1 0.3 0.1 0.6 0.1zm23.6-17.9q-1.2 0.4-2.6 1.2-1.4 0.8-2.2 1.3-0.8 0.5-2.6 1.7-1.8 1.3-2.1 1.5-1.6 1.1-4.9 3.3-0.1 0-0.6 0.5-0.5 0.4-0.7 0.6-0.2 0.1-0.5 0.5-0.3 0.3-0.5 0.6-0.3 1-1.3 1-0.9 0-1.4-0.8-0.2-0.2-0.3-0.2-0.2 0-1.1 0.6-0.9 0.6-1.2 0.6-0.5 0-1.1-0.2-0.3 0-0.5 0.2-0.1 0.2-0.2 0.6-0.1 0.4-0.2 0.5-2 3.3-2.3 4.2 0.6 0 2.8-1.4 0.9-0.5 2.4-1.3 1.4-0.9 1.9-1.2 1.7-1 5-3 3.3-1.9 5-3 0.5-0.3 3.6-2.3 3-1.9 4.7-2.8 0.2-0.1 0.5-0.2 0.3-0.2 0.4-0.2zm-0.5 3.8q-0.1 0.2-0.5 0.6-0.5 0.3-1.1 0.7-0.7 0.3-0.8 0.5-0.9 0.7-2.7 2-1.8 1.4-2.7 2.1-1.3 1-4 3-2.6 2-3.9 2.9 1.7-0.9 4.8-2.7 3.2-1.8 4.5-2.6 2.1-1.1 4.2-2.5 0.2-0.1 0.5-0.1h0.2q0.1-0.1 0.3-0.5 0.2-0.5 0.2-0.6 0.5-1.3 1-2.8zm-7.5 8.5q-0.9 0.6-2.8 1.8-1.8 1.2-2.8 1.8 0.8-0.4 2.5-1.4 1.6-0.9 2.4-1.3l0.1-0.2v0.1q0.4-0.6 0.6-0.8zm-2.1 3.7q0 0-0.1 0-0.1 0.1-0.2 0.1 0.1 0 0.1 0.1 0.1 0 0.1 0 0-0.1 0.1-0.2zm6.9-6.6q0.4-0.3 0.4-0.4-0.3 0.2-0.4 0.4zm-2.8 1.6h0.8q0.6 0 0.9-0.3 0.6-0.4 0.9-1.1 0.1-0.1 0.2-0.2-0.8 0.4-2.8 1.6zm-19.3 0.3q-0.6-0.4-0.9-0.9-0.1-0.1-0.3-0.3-0.1-0.2-0.1-0.3-0.1-0.1-0.2-0.1 0 0-0.5 0.5-2.5 2.6-3.7 4.3-0.2 0.1-0.3 0.4 0.1-0.1 0.2-0.1 1.3-0.8 5.8-3.5zm-9.7 2.8q0.3 0.1 1.1 0.9 0.8 0.8 1.4 0.9v-0.1q0-0.6 1.1-2 1.7-2.3 3.9-4.7-1.5 1-4.4 2.7-3 1.7-3.5 2 0.2 0.2 0.4 0.3zm5.4-9q0.2 0.3-0.2 0.9-0.3 0.5-0.8 1-0.4 0.5-1 1.1-0.5 0.6-0.5 0.6-0.5 0.7-1.5 1.8-0.9 1.2-1.4 1.8 0.6-0.4 2-1.2 1.3-0.7 2-1.1 0.4-0.3 1.2-0.7 0.8-0.5 1.2-0.7 0.6-0.3 0.6-0.4 0-0.2-0.1-0.3-1.1-1.9-1.7-6.2-0.1 0.1-0.5 0.3-0.3 0.2-0.4 0.3 0.6 0 0.6 0.3 0 0.3-0.4 0.6-0.4 0.4-0.9 0.7l-0.4 0.4q-0.4 0.3-3.2 2.5-4.4 3.3-4.2 3.8 0.3-0.1 2.7-1.9 2.4-1.8 4.5-3 2.1-1.2 2.4-0.6zm-10.2 4.1q0.1 0.1 0.1 0.2 0.1 0.1 0.1 0.1 0.7-0.8 2.2-2l-0.5 0.2q0 0-0.6 0.4-0.7 0.3-0.6 0.4 0 0-0.5 0.4-0.5 0.4-0.2 0.3zm-0.5-1.3q0.1 0 3.1-2.1 3.1-2.1 3.4-2.4 0-0.1 0.8-0.5 0.8-0.4 1.2-0.7 0.3-0.2 0.9-0.7 0.6-0.4 0.8-0.9 0.3-0.4 0.2-0.8-2 1-7.4 4.9l-0.7 0.6q-0.7 0.5-1.3 0.9-0.6 0.4-1 0.4-0.3 0-0.5-0.2 0.1 0.2 0.2 0.8 0.2 0.5 0.3 0.7zm-2.6-10q3.3-1.8 6.6-3.8 3-1.7 4.4-2.5 1.3-0.5 1.4-1.1-3.6 1.9-6.3 3.6-0.2 0.1-2.6 1.5-2.5 1.4-3.5 2.3zm0.7 5.1q0.7-0.4 2.1-1.3 1.4-1 2.1-1.4-0.5 0.2-1.4 0.8-0.9 0.5-1.4 0.7 0 0.1-0.5 0.3-0.5 0.2-0.7 0.4-0.2 0.2-0.2 0.4zm-2-14.8q0 0.1 0.4-0.1 0.3-0.3 0.8-0.7 0.4-0.4 0.5-0.4 0.6-0.6 1.8-1.6 1.2-1.1 1.8-1.7 3.4-2.6 5.7-4.7-5.6 3.9-8.9 5.7-0.4 0.2-1.2 0.6-0.8 0.4-1.2 0.6 0.3 0.8 0.3 2.3zm0-4.6q0.1 0.1 0.1 0.2 4.3-3.2 8.4-5.7l-2.1 1.2q0 0-1.7 0.9-1.6 1-1.8 1.1-0.1 0.1-1.5 1-1.4 0.9-1.1 0.8 0.3 0-0.3 0.5zm0.2-2.2q0.1-0.2 0.3-0.6 0.3-0.3 0.5-0.6 0.3-0.3 0.7-0.6 0.3-0.4 0.6-0.6 0.2-0.2 0.6-0.5 0.3-0.3 0.4-0.3 2.7-2.4 6.2-4.9-6 3.4-7.8 4.6-0.1 0-0.4 0.2-0.3 0.2-0.4 0.2-0.1 0.1-0.4 0.3-0.2 0.2-0.3 0.3-0.1 0.1-0.2 0.3-0.1 0.2-0.1 0.4v0.3q0.2 0.4 0.2 1.8 0-0.2 0.1-0.3zm21.9-28.6q-0.3 0.3-0.8 0.3-0.1 0-0.4 0-0.3-0.1-0.5-0.1-0.3 0-0.7 0.4-0.2 0.2-0.7 0.6-0.5 0.3-0.7 0.5-0.4 0.3-2.4 2.1-2.1 1.7-3.2 2.7-5.6 4.6-8.6 7.2 1.8-1.1 5.6-3.1 3.7-2.1 5.6-3.2 7-4.4 11.7-7.3-0.1-0.1-0.5-0.1-0.2 0-0.8 0.1-0.7 0.1-0.8 0.1-0.1 0-0.9-0.1-0.7-0.2-1.1-0.2-0.6 0-0.8 0.1zm-4.4 0.5q-10.2 5.9-12.8 7.8 4-1.7 12.8-7.8zm-15.4 13.2q-0.1 0.2-0.3 0.4 2-1.7 5.9-4.9 3.9-3.3 5.9-5-0.5 0.3-1.7 1.1-1.2 0.8-1.8 1.2-0.6 0.5-1.7 1.1-1 0.6-1.9 1-0.9 0.5-1.9 0.8-0.2 0-0.7 0.2-0.6 1.2-0.9 1.4 0 0.7-0.9 2.7zm0.8 1.7q-0.2 0.2-0.5 0.3-0.6 0.4-1 0.7-0.5 0.4-0.7 0.7 1.5-0.5 6.2-3.2 7.8-4.4 15-9-0.7 0.4-5.1 2.8-4.4 2.4-6.7 3.8-3.9 2.3-6.8 3.7-0.1 0-0.1 0zm-1.1 4.5q1.6-1.1 3.4-2.4 1.9-1.3 2.1-1.5 1.9-1.3 4.6-3.3 1.4-1 2.6-1.8 0.1-0.1 0.7-0.5 0.6-0.3 0.7-0.6-7.4 4.7-12.6 7.3-1.4 0.7-2.4 1.1-0.7 0.3-0.7 1.1 0 0.2 0.1 0.7 0 0.4 0 0.7 0 0.3-0.1 0.5 0.2-0.3 1.6-1.3zm31.2-18.2q-0.1 0-0.2 0.1-0.7 0.5-3.4 2.5 0.7-0.4 2.1-1.2 1.5-0.9 2.2-1.3-0.1-0.1-0.3-0.1-0.2 0-0.4 0zm-0.2 0.1q0.2-0.1 0.2-0.1l-0.4 0.3q0 0 0.2-0.2zm0 1.7q-1.1 0.7-3 1.9-1.9 1.3-2.9 1.9 0.2 0.2 0.7 0.5 0.5 0.4 0.7 0.6 0.3 0.2 0.6 0.6 0.2 0.4 0.4 0.8 0.2 0.4 0.5 1.1 0.1 0.2 0.2 0.4 0-0.2 0.5-0.7 0.5-0.5 0.7-0.6 0.7-0.7 2.3-2.1 0.6-0.6 1.9-1.8 1.2-1.2 1.8-1.8-0.6 0.3-2.3 1.5-1.7 1.3-2.6 1.8-1.7 1.1-2.6 1.2-0.3 0-0.6-0.2-0.3-0.2-0.3-0.5 0-0.2 0.2-0.3 1.5-1.1 2.3-1.8 2.4-1.9 4.1-3.7-0.4-0.1-0.8 0.1-0.5 0.1-1.1 0.6zm-2.6 8.4q0.2 0 0.2-0.2-0.3-0.1-0.4-0.2 0.1 0.2 0.2 0.4zm-0.2-0.4q0 0 0-0.1 0 0.1 0 0.1zm-8.4 45.6h0.8q1.6 0 2.5-0.5 0.2-0.4 1.2-0.7 1-0.2 1.2-0.8v-0.2q0-0.5 0.4-1.7 0.5-1.2 0.5-1.4 0.1-0.2 0.6-1.2 0.4-1 0.5-1.5c0-0.5 0-1.6 0-2.1q0.1-0.7 0.1-1.7 0.1-0.9 0.2-1.4 0-0.3-0.1-0.8 0-0.6 0-0.8v-0.8q0-0.3 0.1-0.9 0.2-0.6 0.2-0.9 0-0.1-0.1-0.2 0-0.2 0-0.2-0.4 0.2-1.1 0.2-0.4 0-0.4-0.4v-0.2q0.1-0.7 1.5-1.4 0-0.4-0.1-1.1 0-0.7 0-1v-0.5q-0.4 0.2-0.8 0.2-0.5 0-0.5-0.3 0-0.2 0.1-0.3 0.2-0.4 1.1-0.8v-0.7q-0.1-0.2-0.1-0.9 0-2.1 0.6-3.1-1.2 0.8-1.5 0.7-0.4-0.1-0.4-0.5 0-0.3 0.2-0.5 0.2-0.1 0.7-0.4 0.4-0.4 0.7-0.7 0.3-0.3 0.4-0.5v-0.7q0-0.5-0.1-0.7-0.6 0.6-1.2 0.6-0.4 0-0.4-0.3v-0.3q0.1-0.4 0.8-0.7 0.7-0.4 0.7-0.8-0.4-1.4-0.4-2.8v-0.4q-0.5-1.2-0.5-3.3 0-0.9 0.1-1.2-0.1-0.2-0.3-1.1-0.2-0.8-0.3-1.1-0.4 0.4-0.8 0.4-0.4-0.1-0.4-0.6 0-0.1 0.2-0.3 0.1-0.2 0.4-0.3 0.2-0.1 0.2-0.3v-0.4q-0.1-0.3-0.4-1-0.3-0.7-0.4-1-0.2-0.4-0.6-0.8-0.3-0.3-1-0.7-0.6-0.4-0.8-0.6-0.2 0-0.7 0.4-0.5 0.4-0.8 0.4-0.5 0-0.5-0.3 0-0.2 0.3-0.5 0.2-0.4 0.4-0.4-0.1-0.1-0.4-0.1-0.3 0-0.7 0.3-0.4 0.3-0.7 0.6-0.2 0.3-0.7 0.8-0.4 0.5-0.5 0.6-0.9 0.9-1.5 1.2-0.2 0.2-0.5 0.5-0.2 0.3-0.4 0.5-0.4 0.3-0.6 0.4-0.2 0.2-0.3 0.4-0.2 0.2-0.2 0.3-0.1 0-0.2 0.5-0.1 0.4-0.2 0.6-0.1 0.3-0.2 1-0.1 0.7-0.2 0.9-0.2 1.6-0.4 2.2 0 0.2 0.1 0.8 0.1 0.5 0.1 0.8 0.1 0.6 0.1 1.5 0 1.7-0.4 3v0.4q0 0.2-0.1 0.8 0 0.5 0 0.8 0.4 0 0.4 0.4 0 0.4-0.2 0.6-0.3 0.2-0.3 0.5v0.6q0 0.4 0.1 1 0.1 0.7 0.1 1v0.3q0.1 0.2 0.1 0.4 0 0.9-0.3 1.2-0.2 0.2-0.2 0.7 0 0.2 0 0.6 0.1 0.4 0.1 0.6v0.3l0.1 0.2q0.1 0 0.4 0.1 0.4 0 0.4 0.4 0 0.4-0.4 0.6-0.2 0.2-0.2 0.3 0 0.1 0.3 0.6 0.3 0.4 0.3 0.6 0 0.4-0.1 0.6 0 0.1-0.1 0.3-0.1 0.1-0.1 0.2v0.7q-0.1 0.1-0.4 0.5-0.2 0.3-0.2 0.6 0.4-0.4 0.9-0.4 0.3 0 0.4 0.2 0 0 0 0.1 0.1 0.1 0.1 0.2 0 0.2-0.2 0.4-0.1 0.1-0.4 0.3-0.3 0.2-0.4 0.3 0.9 0 0.9 0.6 0 0.6-0.7 1.3 0.1 0.4 0.1 1.1v0.4q0.1 0.2 0.2 0.4 0.2 0.2 0.2 0.3 0 0.2-0.3 1.4 0.1 0.2 0.1 1 0.2 0.4 0.2 1.6 0.1 0.3 0.2 1.2 0.2 0.9 0.5 1.3 0.1 0.3 0.3 0.8 0.3 0.6 0.4 0.9 1.2-0.6 1.2-0.6 0.2 0 0.4 0.2 0.1 0.1 0.1 0.3 0 0.2-1 1.2 0.1 0.1 0.3 0.2 0.2 0.2 0.2 0.3 0.9 1.1 2.4 1.1zm16.8-52.6q0 0.2-1.9 1.9-1.8 1.7-2.2 2 1.5-0.7 2.5-1.3 0-0.1 0.6-0.5 0.6-0.4 1-0.6 0.4-0.2 0.7-0.2-0.1-0.1-0.7-1.3zm1.9 3.2q-0.4 0.3-1.1 1-0.7 0.6-0.8 0.7 1.6-1 2.4-1-0.3-0.3-0.5-0.7zm0.6 1.8q-0.1 0.2-0.2 0.4 0-0.1 0.1-0.3 0-0.1 0.1-0.1zm-0.2 0.5q0.1 0 0.2-0.5 0-0.1 0 0-0.5-0.1-1.8 0.6-2 1-5.1 3.4-0.5 0.4-2.1 1.6-0.3 0.3-0.4 0.4-0.1 0.2-0.1 0.4-0.1 0.3-0.1 0.6 0.1 0.3 0.1 0.8v1q0 0.7 0.1 1.1 2.7-2.5 6.6-6.5 0.1-0.1 0.7-0.7 0.7-0.7 1-1 0.2-0.3 0.6-0.8 0.2-0.2 0.3-0.5zm3 3.6q-8.5 5-8.9 5.2-0.1 0-1.1 0.4-0.9 0.5-1.5 0.9-0.5 0.4-0.5 0.8 0 0 0 0.9 0.1 0.8 0.3 1.1 4.3-3.2 7.7-6l1.2-0.8q1.1-0.8 1.9-1.5 0.9-0.7 0.9-1zm0.3 1.1q0 0.1-4.8 4 2.3-1.6 4.3-2.4 0.7-0.4 0.7-0.7 0-0.1-0.2-0.9zm1.3 7.2q-4.4 2.7-11.3 6.7-0.9 0.6-1.5 0.8-0.3 0.2-0.3 0.6-0.1 0.4-0.1 0.5-0.1 0.2-0.3 0.8-0.1 0.6-0.1 0.9v0.2q3.8-2.3 9.3-6.2 0.1-0.1 0.9-0.6 0.8-0.5 1.3-0.8 0.5-0.4 1.1-0.9 0.6-0.6 0.9-1.1 0.2-0.5 0.1-0.9zm-41.6 0.4q0 0 0.1 0-1.3 0.9-3.6 2.6 7.6-4.7 10.6-6.4 0.4-0.2 1.3-0.7 0.8-0.5 1.3-0.7 0.2 0 0.3-0.1 0.1-0.1 0.2-0.3 0.1-0.2 0.1-0.3 0-0.1 0-0.4 0.1-0.3 0.1-0.4-4.6 3.4-9.4 6.1 0 0-0.1 0-0.1 0.1-0.3 0.2 0.2-0.1 0.4-0.2 0 0.1-0.2 0.2-0.3 0.2-0.5 0.3-0.2 0.1-0.3 0.1 0.4-0.2 0.6-0.4zm-0.5-7q0-0.1 0.1-0.1 0 0 0.2 0-0.2 0.1-0.3 0.2-0.3 0.1-0.3 0 0.2-0.1 0.3-0.1zm0.3-0.1q0 0 0.1-0.1l0.2-0.1q0 0-0.1 0.1-0.1 0-0.2 0.1 0 0 0 0zm10 3.3q-7.4 5.4-11 8.8 5.8-4.2 9-5.9 1.3-0.6 2.1-0.8 0.1 0 0.1-0.4 0-0.3-0.1-1-0.1-0.6-0.1-0.7zm1.4-6.7q0 0.1-0.4 0.4-0.4 0.3-1 0.6-0.5 0.4-0.6 0.5-1.2 0.8-2.5 1.7-0.8 0.5-4.5 3.3 3.7-2.5 6.8-4.1 0.1 0 0.7-0.3 0.5-0.2 0.9-0.3 0.2-0.1 0.3-0.3 0.1-0.2 0.2-0.5 0-0.2 0-0.5 0.1-0.4 0.1-0.5zm-1.1 10.5l-1 0.5q0.1 0 0.3 0 0.3-0.1 0.5-0.2 0.2-0.1 0.2-0.3zm-1 0.5q-0.1 0.1-0.1 0.1zm-6.9 5.2q-2.6 1.6-4.8 3.3 3.4-1.9 10.7-6.9-1.9 0.9-5.9 3.6zm7.5-2.7q-1.9 1.6-5.5 4.8-3.7 3.1-5.5 4.7 1.2-0.8 3.5-2.1 2.3-1.4 3.4-2.1 0.3-0.1 3.7-2 0.4-0.3 0.4-1.5 0-0.4 0-1 0-0.7 0-0.8zm0 4.9q-2 1.5-5.7 4.5-3.7 3-4.2 3.5 2.3-1.4 7.6-4.9 1.3-0.7 1.9-1.4 0.5-0.6 0.4-1.7zm-0.4 5.1q0.1 0.1 0.1 0.4 0 0.2-0.2 0.5-0.2 0.3-0.5 0.6-0.3 0.3-0.6 0.5-0.2 0.2-0.6 0.4-0.3 0.3-0.4 0.4 2.6-1.1 2.6-1.7 0-0.3-0.3-2.4-0.1 0.7-0.1 1.1zm18.1-20.7q1.1-1 3.2-2.9 2.1-1.8 2.4-2.1-1.9 1.2-6.2 3.6 0.1 0.2 0.3 0.7 0.2 0.5 0.3 0.7zm14.5 16.2v-0.5q-4.4 3.3-8.9 7.1-0.5 0.4-1.6 1.3-1.1 0.9-1.9 1.7-0.7 0.8-1.2 1.6 1 0 3-1.5 1.2-0.8 5.2-3.6 0.5-0.4 2-1.5 1.4-1.1 2.2-1.6 1.3-0.6 1.6-0.5-0.1-0.3-0.3-1.2-0.1-0.9-0.1-1.3zm-13.8 18.4q8-4.8 12.4-8-1.1 0.6-6.6 3.9-0.8 0.4-2.2 1.3-1.3 0.8-1.6 1-0.2 0.1-0.7 0.4-0.5 0.2-0.7 0.4-0.3 0.1-0.5 0.4-0.3 0.4-0.3 0.8zm6.8-14.6q0 0 0-0.1 0 0 0 0.1zm6.3-6.5q-1 0.8-2.3 1.7l-1.4 0.8q-1.2 0.9-7.2 5 6.8-4.5 9.3-5.9 0.9-0.6 2-1.1 0.3-0.1 0.4-0.3 0.1-0.3 0.1-0.6 0-0.3 0.1-0.4-0.2 0.2-1 0.8zm-0.3 15.9q-3.8 2.3-4.3 2.6-2 1.2-5.2 3.5-1.8 1.1-3.8 2.7-0.3 0.3-0.6 0.6-0.2 0.3-0.3 0.4-0.1 0.2-0.4 0.7-0.2 0.5-0.2 0.6 0.9-0.6 3.2-2.3 2.3-1.6 4-2.7 1.7-1.1 3.3-2.1 2.8-1.5 3.7-1.9 0.3-0.1 0.4-0.5 0.1-0.4 0.1-0.9 0.1-0.6 0.1-0.7zm-12.9 2.8v0.3q0.6-0.4 1.7-1.2-0.2 0.1-0.7 0.3-0.4 0.1-0.7 0.3-0.2 0.2-0.3 0.3zm12.6-6.7q0.3-0.2 0.5-0.2 0.1-0.1 0.2-0.2 0.1-0.2 0.1-0.2 0 0 0.1-0.2l0.1-0.4q-0.8 0.5-2.4 1.6-0.8 0.6-1.4 1-0.6 0.4-1 0.7 3.5-2 3.8-2.1zm-3.8 2.1q0.6-0.4 1-0.7 0.4-0.2 0.5-0.2zm5.4-14.9q0.1-0.1 0.1-0.2-0.1 0.1-0.1 0.2zm-9.7 3.8q-2.2 1.3-4.5 2.5 0.2 0.8 0.2 1.4 0 0.2 0 0.5-0.1 0.3-0.1 0.4 1.3-0.8 3.8-2.6 2.5-1.7 3.8-2.5 0.7-0.5 2-1.4 1.2-0.9 1.9-1.3 0.3-0.3 0.9-0.7 0.6-0.5 0.9-0.7 0.6-0.9 0.6-1.2l-0.9 0.5q0.2-0.2 0.4-0.3-6.3 3.8-9 5.4zm9-5.4q0.2-0.1 0.5-0.2-0.1 0-0.5 0.2zm-6.6 8.9q-0.1 0-0.2 0.1 0.1-0.1 0.2-0.1zm-0.2 0.1q0 0 0 0-0.3 0.3-0.5 0.5 0.2-0.2 0.4-0.3 0-0.2 0.1-0.2zm-0.7 0.6q0.1 0 0.2-0.1zm-5.3-7.2q0.6-0.4 1.8-1.3 1.3-0.9 1.9-1.3-0.2 0.1-0.7 0.4-0.5 0.2-0.9 0.5-0.5 0.2-1 0.5-0.5 0.3-0.8 0.6-0.3 0.3-0.3 0.6zm-0.1-2.3q1.1-0.8 3.7-2.6 2.5-1.8 4.4-3.2 1.9-1.4 3.5-2.8-1.8 0.8-7.2 4.1l-4.1 2.8q-0.4 0.2-0.4 0.7 0 0.2 0.1 0.5 0 0.3 0 0.5zm4-22.7q-0.1-0.1-1.7 1.3-1.6 1.5-2.5 2.3 4.6-3.2 4.7-3.3-0.1-0.1-0.5-0.3zm-10.5 2.9q0.4-0.3 1.2-1 0.9-0.6 1.3-1-0.6 0.4-1.8 1.1-1.1 0.8-1.8 1.1 0.3 0.1 0.5 0.1zm-15.1 25.1q-1.5 0.9-4.4 2.6-3 1.7-3.5 2-0.1 0-0.6 0.3-0.6 0.2-0.9 0.4-0.3 0.2-0.7 0.4-0.4 0.3-0.5 0.5 0.2 1.6 0.2 2.6 0 0.8-0.2 2.2 0.3-0.2 0.5-0.7 0.3-0.5 0.6-0.7 0.4-0.2 1.3-0.7 0.9-0.5 1.3-0.8-1.8 0.9-2.3 0.9-0.6 0-0.7-0.4-0.1-0.1-0.1-0.3 0-0.2 0.5-0.5 0.3-0.2 1.4-1.2 1.2-0.9 1.8-1.4 4.2-3.4 6.3-5.2zm-10.1 13.2l2.6-1.8q2.7-1.9 5.5-4 2.9-2.1 3.3-2.7-0.3 0-0.7 0.2-0.4 0.3-0.9 0.6-0.5 0.4-0.6 0.5-0.8 0.5-2.3 1.5-1.5 0.9-2.2 1.4-0.8 0.4-2.2 1.3-1.3 0.9-1.8 1.3-0.8 0.5-0.8 0.7 0 0.1 0 0.4 0.1 0.3 0.1 0.6zm0.6 4.6q0.9-1.1 3.8-2.7-0.3 0.2-1 0.5-1.2 0.6-2.1 1.1-0.8 0.5-0.8 0.8 0 0.1 0 0.2 0.1 0 0.1 0.1zm3.8-2.7q0.2-0.1 0.3-0.1-0.2 0-0.3 0.1zm0.1-2.1q0.8-0.3 1.9-1-0.3 0.1-1 0.5-0.6 0.3-0.9 0.5zm8.9 1.9q-0.1 0-0.3 0.2 0.3 0 0.3-0.2zm17.4 5.6q-0.1 0.1-0.1 0.2 1.9-1.6 4.9-3.5-0.2 0-1.2 0.5-1 0.5-1.6 0.8-0.6 0.3-1.2 0.9-0.7 0.6-0.8 1.1zm0.5-7.9q0.6-0.5 1.2-0.9-0.3 0.1-0.6 0.1-0.2 0.1-0.3 0-0.1 0-0.2 0.1-0.1 0.1-0.1 0.2zm11.6-17.9q0.4-0.2 0.8-0.4 0.3-0.2 0.6-0.4 0.3-0.2 0.5-0.5 0.2-0.3 0.1-0.6-0.7 0.6-2.1 1.7l-0.2 0.2q0 0 0.1 0-0.1 0.1-0.3 0.2 0.1 0 0.5-0.2zm-0.3 0q-0.1 0.1-0.2 0.2zm0.1-0.1q0 0 0.1-0.1l0.3-0.2q-0.1 0.1-0.4 0.3zm-2.8-2.1q0.1 0 0.8-0.4 0.7-0.4 1.3-0.7 0.6-0.4 1.3-0.8 0.6-0.5 1-0.8 0.4-0.3 0.3-0.5-1.9 1.4-3.4 2.4-0.2 0.1-0.3 0.2-0.4 0.2-1 0.6zm-5.7 1.5q1-0.7 3.2-1.9 2.1-1.3 3.1-1.9 0.6-0.3 1.7-0.9 1.1-0.6 1.7-0.9 0.4-0.3 0.4-0.7 0-0.1-0.2-1.1-1.4 1.3-2.9 2.4-1.5 1.1-3.9 2.8-2.4 1.6-3.1 2.2zm6.7-2.1q0.1-0.1 0.3-0.2l-0.3 0.2q0 0 0 0zm0.7-12.7q-0.1-0.1-0.2-0.2-0.1-0.2-0.1-0.2-0.5 1-1.4 2.1-0.9 1.1-1.6 1.8-0.7 0.7-2.1 2-1.4 1.3-1.8 1.7 0.7-0.5 3-1.8 2.3-1.3 3.5-2.1 0.1 0 0.4-0.1 0.3-0.2 0.5-0.2 0.1-0.1 0.3-0.2 0.3-0.2 0.4-0.3 0.1-0.2 0.1-0.4 0-0.2-0.1-0.4-0.7-1.2-0.9-1.7zm-2.4-3.6q0-0.1-0.1-0.2 0-0.1 0-0.1-0.1 0.2-0.4 0.5 0.5-0.3 0.5-0.2zm-0.6 0.2q-0.1 0.1-0.2 0.1 0.1 0 0.3-0.1-0.1 0-0.1 0zm-1 0.7q-0.6 0.3-0.6 0.4 0.1-0.1 0.7-0.4 0.4-0.3 0.7-0.6-0.4 0.3-0.8 0.6zm-7-6.6q-0.4 0-0.7-0.3-0.9 0.6-1 0.7-0.3 0.1-2 1.4-1 0.7-4.1 2.9 0.2 0 0.6-0.2 0.4-0.3 0.9-0.6 0.5-0.3 0.6-0.4 0.4-0.2 1.2-0.7 0.9-0.5 1.3-0.7 0.6-0.4 1.8-1.1 1.1-0.7 1.7-1zm-2.2-0.5q-0.4 0-0.5 0.3 0.1-0.1 0.2-0.2 0.2-0.1 0.3-0.1zm-15.6 0.9q-0.2 0.1-0.4 0.4-0.3 0.4-0.5 0.5 0.3-0.1 0.8-0.4 0.5-0.3 0.8-0.5-0.3 0-0.3-0.1-0.1 0-0.1 0-0.1 0-0.3 0.1zm-10.6 50.5q0.1 0.2 0.2 0.7 0.1 0.5 0.2 0.6 0.1-0.3 0.8-0.9 0.7-0.6 1.8-1.3 1.1-0.6 1.2-0.7 0.5-0.4 1.6-1.3 1.2-0.9 1.7-1.3 1.6-1.3 2.8-2.3 0.9-0.7 0.9-1.1 0-0.2-0.1-0.4-2.5 1.2-7.5 4.7-0.8 0.4-2.1 1.3-1.3 0.9-1.6 1-0.2 0.1-0.2 0.3 0 0.1 0.2 0.3 0.1 0.2 0.1 0.4zm3.5 7q0.2 0.1 0.6 0.5 0.3 0.4 0.5 0.4 0.2 0 0.3-0.2 0.9-1 1.7-2l2.9-3.6q-5.3 3.7-6.6 4.5 0.1 0.1 0.3 0.2 0.2 0.1 0.3 0.2zm6.6 3q-0.2 0.1-0.2 0.1 0.1-0.2 0.3-0.4 0.2-0.2 0.4-0.2 0 0.2-0.5 0.5zm3.6 3q0.3 0 0.7-0.7 0.4-0.6 0.8-1.5 0.4-0.8 0.5-1-2.6 1.9-4.1 2.7 1.3 0.2 2.1 0.5zm9.6 0.3q0.5-0.3 0.9-0.7-0.3 0.2-1 0.6-0.7 0.3-1 0.5 0.2 0.1 0.5-0.2 0.3-0.2 0.6-0.2zm12.3-55.9zm-8.4 2zm-30.1 17.5q0 0.1 0 0.2 0-0.1 0-0.2zm0.3-7.7q0 0 0 0.1 0-0.1 0-0.1zm37.7 39.6v0.1zm-6.2-11.2v-0.1z"/>
</svg>